<svg width="25" height="25" viewBox="0 0 25 25" fill="none" xmlns="http://www.w3.org/2000/svg">
<path d="M15.6738 4.15214H15.6861C17.1114 4.15214 18.4026 4.72575 19.3416 5.65475L19.3412 5.65426C20.3019 6.60508 20.8981 7.92272 20.902 9.37957V15.6085C20.8989 18.5008 18.5552 20.8446 15.6632 20.8477H14.0325L10.4184 24.3998L6.86519 20.8477H5.2391C2.34691 20.8446 0.00310056 18.5008 0 15.6089V9.38036C0 6.49288 2.34076 4.15212 5.22824 4.15212H15.6738L15.6738 4.15214ZM15.663 18.6738C17.3551 18.6719 18.7263 17.3007 18.7281 15.6088V9.38036C18.725 8.52985 18.3768 7.76128 17.8165 7.20671L17.8162 7.20647C17.2678 6.66204 16.5124 6.32557 15.6783 6.32557C15.6599 6.32557 15.6416 6.32576 15.6233 6.32606H15.626H5.22824C3.54141 6.32606 2.17394 7.69348 2.17394 9.38036V15.6086C2.17579 17.3007 3.54702 18.6719 5.23895 18.6737H7.76518L10.4347 21.339L13.1467 18.6738H15.663ZM19.7608 16.6955V14.5217H19.7608C21.4537 14.5217 22.826 13.1493 22.826 11.4565C22.826 11.4507 22.826 11.445 22.8259 11.4393V11.4402V5.23912C22.8259 3.54627 21.4536 2.17391 19.7608 2.17391H9.39129C7.69843 2.17391 6.32613 3.54622 6.32613 5.23908H4.15222C4.15222 2.34564 6.49783 0 9.39132 0H19.7609C22.6543 0 25 2.34561 25 5.2391V11.4347C25 11.4421 25 11.4509 25 11.4597C25 14.3532 22.6544 16.6988 19.7609 16.6988H19.7608L19.7608 16.6955ZM7.31521 13.5869H5.23912V11.413H7.31521V13.5869ZM11.4674 13.5869H9.39129V11.413H11.4674V13.5869ZM15.6086 13.5869H13.5325V11.413H15.6086V13.5869Z" fill="black"/>
</svg>
