<svg width="22" height="16" viewBox="0 0 22 16" fill="none" xmlns="http://www.w3.org/2000/svg">
<path d="M11.0825 0C4.125 0 0 8 0 8C0 8 4.125 16 11.0825 16C17.875 16 22 8 22 8C22 8 17.875 0 11.0825 0ZM11 2.66667C14.0525 2.66667 16.5 5.06667 16.5 8C16.5 10.96 14.0525 13.3333 11 13.3333C7.975 13.3333 5.5 10.96 5.5 8C5.5 5.06667 7.975 2.66667 11 2.66667ZM11 5.33333C9.4875 5.33333 8.25 6.53333 8.25 8C8.25 9.46667 9.4875 10.6667 11 10.6667C12.5125 10.6667 13.75 9.46667 13.75 8C13.75 7.73333 13.64 7.49333 13.585 7.25333C13.365 7.68 12.925 8 12.375 8C11.605 8 11 7.41333 11 6.66667C11 6.13333 11.33 5.70667 11.77 5.49333C11.5225 5.41333 11.275 5.33333 11 5.33333Z" fill="#9F9F9F"/>
</svg>
