<svg width="17" height="18" viewBox="0 0 17 18" fill="none" xmlns="http://www.w3.org/2000/svg">
<path d="M0 9C0 7.21997 0.498516 5.47991 1.43251 3.99987C2.3665 2.51983 3.69402 1.36628 5.24719 0.685088C6.80036 0.00389957 8.50943 -0.17433 10.1583 0.172936C11.8071 0.520203 13.3217 1.37737 14.5104 2.63604C15.6991 3.89471 16.5087 5.49836 16.8367 7.24419C17.1646 8.99002 16.9963 10.7996 16.353 12.4442C15.7096 14.0887 14.6202 15.4943 13.2223 16.4832C11.8245 17.4722 10.1811 18 8.5 18C6.24642 17.9974 4.08587 17.0483 2.49235 15.361C0.898835 13.6738 0.00249981 11.3861 0 9H0ZM8.5 16.616C10.2763 16.6177 11.9899 15.9206 13.3082 14.66C12.9392 14.3494 12.5186 14.1147 12.0681 13.968C11.9737 13.93 11.8679 13.893 11.7394 13.847L11.4032 13.727C10.1868 13.292 9.639 12.941 9.40383 12.119C9.38384 12.0514 9.36776 11.9826 9.35566 11.913C9.27238 11.4799 9.31452 11.0303 9.47655 10.623C9.59072 10.3388 9.76678 10.0873 9.99033 9.889C10.2868 9.6348 10.5233 9.31096 10.681 8.94314C10.8387 8.57532 10.9133 8.17366 10.8989 7.77C10.9087 7.42631 10.8544 7.08395 10.7391 6.7625C10.6238 6.44106 10.4498 6.14684 10.2269 5.89671C10.0041 5.64657 9.7369 5.44541 9.44056 5.30476C9.14423 5.1641 8.82461 5.08671 8.5 5.077C8.17437 5.08311 7.85319 5.15808 7.55533 5.29751C7.25746 5.43695 6.98893 5.63802 6.76552 5.88892C6.54211 6.13982 6.36833 6.43549 6.25439 6.75853C6.14045 7.08156 6.08866 7.42546 6.10205 7.77C6.08781 8.16716 6.15896 8.56255 6.31014 8.92634C6.46131 9.29012 6.68856 9.6128 6.97472 9.87C7.179 10.0469 7.34789 10.2651 7.4715 10.512C7.68843 10.9476 7.7498 11.4514 7.64433 11.931C7.63521 11.9843 7.62226 12.0368 7.60561 12.088C7.39972 12.898 6.86705 13.245 5.69878 13.668L5.31061 13.807C5.1595 13.861 5.04144 13.907 4.93283 13.948C4.48145 14.1007 4.06136 14.3422 3.69467 14.66C5.01224 15.9199 6.72466 16.6169 8.5 16.616ZM12.2051 7.77C12.2186 8.37153 12.1034 8.9685 11.8682 9.51625C11.633 10.064 11.2839 10.5483 10.8469 10.933C10.7734 10.9956 10.7154 11.0763 10.6779 11.168C10.6211 11.3227 10.608 11.4915 10.6401 11.654C10.6429 11.6712 10.6467 11.6883 10.6514 11.705C10.7185 11.939 11.0066 12.123 11.8207 12.415L12.1559 12.533C12.2938 12.582 12.4043 12.623 12.5111 12.663C13.1289 12.8682 13.7025 13.2006 14.1988 13.641C15.0184 12.5138 15.5235 11.1661 15.6569 9.75059C15.7902 8.33504 15.5465 6.90825 14.9533 5.63187C14.36 4.35548 13.441 3.28054 12.3004 2.52883C11.1597 1.77711 9.84306 1.37869 8.49953 1.37869C7.15599 1.37869 5.83931 1.77711 4.69867 2.52883C3.55803 3.28054 2.63903 4.35548 2.04579 5.63187C1.45256 6.90825 1.20881 8.33504 1.34215 9.75059C1.4755 11.1661 1.98062 12.5138 2.80028 13.641C3.29219 13.1974 3.86138 12.86 4.47572 12.648C4.60039 12.599 4.72883 12.548 4.88939 12.494L5.27566 12.356C6.03122 12.083 6.29661 11.909 6.36083 11.667C6.36083 11.673 6.36083 11.662 6.3665 11.636C6.40308 11.4746 6.38504 11.3047 6.3155 11.156C6.26307 11.0588 6.19273 10.9738 6.10866 10.906C5.68434 10.5186 5.34643 10.0364 5.11926 9.49418C4.8921 8.95191 4.78133 8.36305 4.79494 7.77C4.78138 7.24362 4.86688 6.71964 5.04646 6.22859C5.22604 5.73753 5.49611 5.28923 5.84093 4.90978C6.18576 4.53034 6.59846 4.22734 7.05497 4.01844C7.51149 3.80954 8.0027 3.69891 8.5 3.693C8.99613 3.70302 9.48554 3.81643 9.94027 4.02676C10.395 4.23708 10.8061 4.54021 11.1502 4.91881C11.4943 5.29741 11.7645 5.74408 11.9455 6.2333C12.1265 6.72251 12.2147 7.24469 12.2051 7.77Z" fill="white"/>
</svg>
