<svg width="22" height="22" viewBox="0 0 22 22" fill="none" xmlns="http://www.w3.org/2000/svg">
<path d="M11.0696 2.13438e-05C17.1069 0.0027335 22 4.89702 22 10.9341C22 13.951 20.778 16.6826 18.8019 18.6609L18.802 18.6608C16.8106 20.7209 14.0223 22 10.9352 22C4.89586 22 0 17.1047 0 11.066C0 7.98043 1.27822 5.19341 3.33411 3.20542L3.33716 3.20248C5.30507 1.22425 8.02939 0 11.0397 0H11.0712H11.0696L11.0696 2.13438e-05ZM11.0696 20.4102C16.3037 20.4102 20.5467 16.1676 20.5467 10.9341C20.5467 5.70052 16.3037 1.4579 11.0696 1.4579C5.83545 1.4579 1.59238 5.70052 1.59238 10.9341C1.59846 16.1651 5.83789 20.4041 11.069 20.4102H11.0696ZM16.6392 11.663H5.49986V10.2051H16.6392V11.663ZM11.7985 16.5031H10.3405V5.365H11.7985V16.5031Z" fill="black"/>
</svg>
