<svg width="50" height="49" viewBox="0 0 50 49" fill="none" xmlns="http://www.w3.org/2000/svg">
<path d="M31.6363 8.6818H31.6604C34.33 8.6818 36.7487 9.75621 38.5076 11.4963L38.5067 11.4954C40.3072 13.2769 41.4244 15.7459 41.4317 18.4758V31.4999C41.4253 36.9198 37.0334 41.3117 31.6141 41.3181H27.7272L20.6409 48.2817L13.6886 41.3181H9.81821C4.3984 41.3117 0.00650671 36.9198 0 31.5005V18.4772C0 13.0674 4.38562 8.68175 9.79543 8.68175H31.6363V8.6818ZM31.6136 39.0454C35.7787 39.0402 39.1538 35.6652 39.159 31.5004V18.4772C39.1534 16.38 38.2957 14.4841 36.9142 13.1165L36.9136 13.1159C35.5637 11.7792 33.7057 10.9533 31.6549 10.9533C31.6068 10.9533 31.5588 10.9538 31.511 10.9546L31.5181 10.9545H9.79543C5.6408 10.9545 2.27278 14.3226 2.27278 18.4772V31.4999C2.27796 35.6651 5.65306 39.0402 9.81774 39.0453H14.6296L20.6659 45.0818L26.8023 39.0453L31.6136 39.0454ZM40.1817 32.6364V30.3636H40.1819C44.3491 30.3636 47.7273 26.9854 47.7273 22.8182C47.7273 22.8021 47.7273 22.7862 47.7272 22.7703V22.7727V9.81821C47.7272 5.65094 44.3489 2.27278 40.1817 2.27278H18.4999C14.3327 2.27278 10.9545 5.65094 10.9545 9.81821H8.68175C8.68175 4.39576 13.0776 0 18.5 0H40.1818C45.6041 0 49.9999 4.3958 49.9999 9.81816V22.7727C50 22.7862 50 22.8022 50 22.8182C50 28.2406 45.6042 32.6363 40.1818 32.6363L40.1817 32.6364ZM31.5 21.7955H9.81816V19.5227H31.4999L31.5 21.7955ZM31.5 30.4772H9.81816V28.2045H31.4999L31.5 30.4772Z" fill="black"/>
</svg>
