<svg width="55" height="52" viewBox="0 0 55 52" fill="none" xmlns="http://www.w3.org/2000/svg">
<path d="M55 51.0326L40.0825 46.7826L40.7675 44.3776L52.5 47.7176V7.34508L37.0275 2.94508L17.9275 7.69506L2.50003 3.30505V43.6575L17.97 48.0801L33.27 44.2376L33.8799 46.6626L17.9299 50.6626L0 45.5426V0L17.9725 5.10753L37.0725 0.357554L55 5.45504V51.0326ZM36.7501 24.2501H37.0551C37.1461 24.2472 37.253 24.2456 37.3604 24.2456C43.0414 24.2456 47.6686 28.7572 47.8546 34.3929L47.855 34.41V34.45C47.855 37.2175 46.1576 40.7575 42.8076 44.9675C41.2333 46.9324 39.6317 48.6907 37.9272 50.3434L37.9125 50.3575L37.0574 51.165L36.2 50.36C34.473 48.7012 32.8691 46.9524 31.3807 45.1066L31.2974 45C27.9475 40.8 26.25 37.2499 26.25 34.4525V34.4124C26.4374 28.7604 31.0642 24.2499 36.7446 24.2499H36.7503H36.7499L36.7501 24.2501ZM37.0551 26.7501H37.0001C36.9241 26.7475 36.8349 26.746 36.7453 26.746C32.4241 26.746 28.9031 30.1721 28.7506 34.4561L28.7502 34.4701C28.7677 38.5451 34.1277 44.7701 37.0477 47.7026C39.9651 44.7476 45.3326 38.4875 45.3501 34.4701C45.1971 30.1721 41.6761 26.746 37.3548 26.746C37.2651 26.746 37.176 26.7475 37.0871 26.7504L37.1 26.7501H37.0551ZM39.4251 35.05C39.4251 36.3618 38.3617 37.4251 37.0501 37.4251C35.7384 37.4251 34.6751 36.3618 34.6751 35.05C34.6751 33.7384 35.7384 32.6751 37.0501 32.6751C38.3617 32.6751 39.4251 33.7385 39.4251 35.0502V35.05ZM19.2 49.3751H16.7001V6.40009H19.2V49.3751ZM38.3 25.5001H35.8001V1.62513H38.3V25.5001Z" fill="black"/>
</svg>
