<svg width="14" height="11" viewBox="0 0 14 11" fill="none" xmlns="http://www.w3.org/2000/svg">
<path d="M12.25 11H1.75C1.28606 10.9994 0.8413 10.806 0.513245 10.4623C0.18519 10.1186 0.000617352 9.6527 0 9.16667L0 1.83333C0.000617352 1.3473 0.18519 0.881362 0.513245 0.537685C0.8413 0.194009 1.28606 0.00064675 1.75 0H12.25C12.7139 0.00064675 13.1587 0.194009 13.4868 0.537685C13.8148 0.881362 13.9994 1.3473 14 1.83333V9.16667C13.9994 9.6527 13.8148 10.1186 13.4868 10.4623C13.1587 10.806 12.7139 10.9994 12.25 11ZM1.16667 3.66667V9.16667C1.16687 9.32868 1.2284 9.48399 1.33775 9.59855C1.4471 9.71311 1.59535 9.77756 1.75 9.77778H12.25C12.4046 9.77756 12.5529 9.71311 12.6623 9.59855C12.7716 9.48399 12.8331 9.32868 12.8333 9.16667V3.66667H1.16667ZM1.75 1.22222C1.59535 1.22244 1.4471 1.28689 1.33775 1.40145C1.2284 1.51601 1.16687 1.67132 1.16667 1.83333V2.44444H12.8333V1.83333C12.8331 1.67132 12.7716 1.51601 12.6623 1.40145C12.5529 1.28689 12.4046 1.22244 12.25 1.22222H1.75ZM6.41667 8.55556H2.91667C2.76196 8.55556 2.61358 8.49117 2.50419 8.37656C2.39479 8.26196 2.33333 8.10652 2.33333 7.94444C2.33333 7.78237 2.39479 7.62693 2.50419 7.51232C2.61358 7.39772 2.76196 7.33333 2.91667 7.33333H6.41667C6.57138 7.33333 6.71975 7.39772 6.82915 7.51232C6.93854 7.62693 7 7.78237 7 7.94444C7 8.10652 6.93854 8.26196 6.82915 8.37656C6.71975 8.49117 6.57138 8.55556 6.41667 8.55556Z" fill="white"/>
</svg>
