<svg width="17" height="16" viewBox="0 0 17 16" fill="none" xmlns="http://www.w3.org/2000/svg">
<path d="M8.14059 15.3848C8.14046 15.304 8.15674 15.224 8.18849 15.1493C8.22023 15.0746 8.26682 15.0067 8.32559 14.9496C8.38436 14.8924 8.45414 14.8471 8.53095 14.8162C8.60775 14.7854 8.69007 14.7695 8.77318 14.7697C10.364 14.7695 11.9067 14.2391 13.1442 13.2671C14.3818 12.295 15.2394 10.9398 15.5741 9.42743C15.9089 7.91504 15.7006 6.33678 14.9839 4.95563C14.2672 3.57448 13.0855 2.47388 11.6357 1.83722C10.1858 1.20056 8.55536 1.06631 7.01606 1.45682C5.47675 1.84734 4.12155 2.73905 3.17629 3.98334C2.23102 5.22764 1.75279 6.74937 1.82127 8.29496C1.88976 9.84054 2.50083 11.3166 3.55266 12.4772V10.3154C3.55266 10.1523 3.6193 9.99578 3.73794 9.88041C3.85657 9.76504 4.01747 9.70023 4.18525 9.70023C4.35302 9.70023 4.51392 9.76504 4.63255 9.88041C4.75119 9.99578 4.81784 10.1523 4.81784 10.3154V13.7949C4.81784 13.8757 4.80147 13.9557 4.76968 14.0304C4.73789 14.105 4.6913 14.1728 4.63255 14.2299C4.57381 14.2871 4.50408 14.3324 4.42733 14.3633C4.35058 14.3942 4.26832 14.4101 4.18525 14.4101H0.608137C0.44472 14.404 0.290101 14.3365 0.176718 14.2219C0.063335 14.1073 0 13.9544 0 13.7954C0 13.6364 0.063335 13.4835 0.176718 13.3689C0.290101 13.2543 0.44472 13.1868 0.608137 13.1807H2.50496C1.29084 11.7914 0.601126 10.0405 0.550043 8.21798C0.498961 6.39544 1.08958 4.6106 2.22407 3.15907C3.35857 1.70754 4.96888 0.676403 6.78831 0.236433C8.60774 -0.203538 10.5271 -0.025945 12.2286 0.739799C13.9301 1.50554 15.3115 2.8135 16.1442 4.44704C16.9768 6.08058 17.2107 7.9417 16.8071 9.72217C16.4035 11.5026 15.3866 13.0956 13.9249 14.2373C12.4631 15.379 10.6442 16.0009 8.76939 16C8.60228 15.999 8.44234 15.9338 8.32453 15.8185C8.20671 15.7033 8.14058 15.5473 8.14059 15.3848ZM10.566 11.4363L8.32592 9.25885C8.20615 9.14394 8.13814 8.98752 8.1368 8.82391V4.56C8.13351 4.47728 8.14743 4.39476 8.17771 4.31739C8.20799 4.24001 8.25403 4.16938 8.31305 4.10972C8.37207 4.05006 8.44287 4.0026 8.5212 3.97018C8.59953 3.93776 8.68379 3.92105 8.76892 3.92105C8.85405 3.92105 8.93831 3.93776 9.01664 3.97018C9.09497 4.0026 9.16577 4.05006 9.22479 4.10972C9.28381 4.16938 9.32985 4.24001 9.36013 4.31739C9.39041 4.39476 9.40433 4.47728 9.40104 4.56V8.5692L11.4558 10.5674C11.5714 10.6833 11.6356 10.8388 11.6343 11.0004C11.633 11.1619 11.5665 11.3165 11.449 11.4307C11.3316 11.5449 11.1726 11.6096 11.0065 11.6109C10.8404 11.6121 10.6805 11.5497 10.5613 11.4372L10.566 11.4363Z" fill="white"/>
</svg>
