<svg width="12" height="12" viewBox="0 0 12 12" fill="none" xmlns="http://www.w3.org/2000/svg">
<path d="M4.56597 1.17123e-05C7.0877 1.17123e-05 9.13197 2.04428 9.13197 4.56598C9.13197 7.08769 7.0877 9.13198 4.566 9.13198C2.04425 9.13198 0 7.0877 0 4.56601C0.003 2.04548 2.04547 0.003 4.5657 0H4.566L4.56597 1.17123e-05ZM4.56597 8.07504C6.50398 8.07504 8.07503 6.50399 8.07503 4.56598C8.07503 2.62797 6.50398 1.05696 4.56597 1.05696C2.62799 1.05696 1.05694 2.62801 1.05694 4.56602C1.05934 6.50303 2.62896 8.07265 4.56576 8.07506H4.566L4.56597 8.07504ZM11.2512 12L6.96684 7.71411L7.71409 6.96685L12 11.2512L11.2512 12Z" fill="#636363"/>
</svg>
