<svg width="14" height="16" viewBox="0 0 14 16" fill="none" xmlns="http://www.w3.org/2000/svg">
<path d="M4.7995 13.81V13.4042H1.79938C1.32207 13.4035 0.864531 13.2105 0.527185 12.8674C0.189838 12.5243 0.000243112 12.0593 1.11259e-05 11.5744V11.265C-0.00124615 10.8785 0.104078 10.4994 0.304048 10.1706C0.504017 9.84185 0.790636 9.57656 1.13142 9.40481C1.28473 9.3278 1.41601 9.21208 1.51268 9.06874C1.60935 8.92541 1.66817 8.75925 1.68352 8.5862L2.04076 4.59481C2.15484 3.33871 2.72665 2.1712 3.64407 1.3212C4.56149 0.471195 5.75836 0 7 0C8.24165 0 9.43851 0.471195 10.3559 1.3212C11.2734 2.1712 11.8452 3.33871 11.9592 4.59481L12.3165 8.5862C12.3314 8.7587 12.3896 8.92442 12.4857 9.06746C12.5818 9.2105 12.7124 9.32605 12.8651 9.40303C13.2066 9.57466 13.4939 9.84007 13.6945 10.1692C13.8951 10.4983 14.0009 10.8779 14 11.265V11.5744C13.9995 12.0592 13.8098 12.524 13.4725 12.8668C13.1352 13.2097 12.6778 13.4026 12.2006 13.4033H9.19962V13.8091C9.18812 14.3941 8.95127 14.9513 8.53994 15.3609C8.1286 15.7706 7.57556 16 6.99956 16C6.42357 16 5.87053 15.7706 5.45919 15.3609C5.04785 14.9513 4.81101 14.3941 4.7995 13.8091V13.81ZM5.99938 13.81C5.99938 14.0795 6.10475 14.3379 6.29233 14.5285C6.4799 14.719 6.7343 14.8261 6.99956 14.8261C7.26483 14.8261 7.51923 14.719 7.7068 14.5285C7.89437 14.3379 7.99975 14.0795 7.99975 13.81V13.4042H6.00025L5.99938 13.81ZM3.23537 4.70538L2.87813 8.69678C2.84507 9.07662 2.71636 9.44143 2.50438 9.75612C2.2924 10.0708 2.00427 10.3248 1.66772 10.4936C1.5261 10.5646 1.40692 10.6745 1.32374 10.8108C1.24057 10.9472 1.19674 11.1045 1.19725 11.265V11.5744C1.19725 11.736 1.26038 11.891 1.37279 12.0054C1.48519 12.1197 1.63767 12.1841 1.79675 12.1843H12.2006C12.3598 12.1841 12.5124 12.1198 12.6249 12.0054C12.7374 11.8911 12.8008 11.7361 12.801 11.5744V11.265C12.8015 11.1049 12.7579 10.9479 12.675 10.8117C12.5922 10.6755 12.4734 10.5656 12.3323 10.4945C11.9959 10.3252 11.7078 10.071 11.4958 9.7562C11.2837 9.44145 11.1547 9.07667 11.121 8.69678L10.7638 4.70538C10.6776 3.7515 10.2438 2.86473 9.5473 2.21907C8.85082 1.57341 7.94199 1.21546 6.99913 1.21546C6.05626 1.21546 5.14743 1.57341 4.45095 2.21907C3.75446 2.86473 3.3206 3.7515 3.23449 4.70538H3.23537Z" fill="white"/>
</svg>
