<svg width="50" height="49" viewBox="0 0 50 49" fill="none" xmlns="http://www.w3.org/2000/svg">
<path d="M17.1902 0H32.8118V5.62556C34.4961 6.33597 35.9487 7.18478 37.2731 8.19318L37.2236 8.15704L42.1718 5.301L50 18.932L45.0452 21.7773C45.1505 22.5298 45.2107 23.3993 45.2107 24.2828C45.2107 25.1663 45.1505 26.0357 45.0341 26.8872L45.0452 26.7883L50 29.6335L42.1718 43.2645L37.2214 40.4085C35.9466 41.3807 34.494 42.2295 32.942 42.89L32.8097 42.94V48.6823H17.1903V43.1325C15.506 42.422 14.0534 41.5732 12.729 40.5648L12.7786 40.601L7.8281 43.457L0 29.826L4.95694 26.9808C4.84997 26.2152 4.78903 25.3307 4.78903 24.432C4.78903 23.5333 4.85007 22.6487 4.96826 21.7825L4.95694 21.8832L0.0021869 19.0337L7.83034 5.40264L12.7807 8.25869C14.055 7.28495 15.5067 6.43481 17.0582 5.77294L17.1903 5.72283L17.1902 0ZM29.5664 3.2455H20.4356V7.98608L19.3538 8.36689C17.2808 9.10378 15.4918 10.1505 13.9422 11.4701L13.9663 11.4501L13.1008 12.1879L9.02443 9.84462L4.43313 17.8501L8.54412 20.215L8.32781 21.3532C8.13917 22.2821 8.03115 23.3499 8.03115 24.4429C8.03115 25.5359 8.13917 26.6036 8.34492 27.636L8.32781 27.5325L8.54412 28.6706L4.43323 31.0355L9.02448 39.041L13.1008 36.674L13.9662 37.4118C15.4882 38.7102 17.2727 39.7566 19.222 40.4577L19.3408 40.495L20.4226 40.8758V45.4367H29.5532V40.6962L30.635 40.3154C32.7129 39.58 34.5064 38.533 36.0597 37.2121L36.0355 37.2322L36.901 36.4943L40.9773 38.8376L45.5686 30.8322L41.4447 28.4802L41.661 27.34C41.8484 26.4251 41.9557 25.3735 41.9557 24.2968C41.9557 23.2202 41.8484 22.1686 41.644 21.1522L41.661 21.2537L41.4447 20.1134L45.5664 17.7463L40.9751 9.74083L36.901 12.1014L36.0355 11.3593C34.5135 10.0609 32.7291 9.01445 30.7797 8.31331L30.661 8.27609L29.5791 7.89528L29.5664 3.2455ZM25.001 14.4532C30.4619 14.4532 34.889 18.8802 34.889 24.3412C34.889 29.8021 30.462 34.2291 25.001 34.2291C19.5401 34.2291 15.1131 29.8021 15.1131 24.3412C15.1193 18.8827 19.5425 14.4594 25.0004 14.4532H25.001ZM25.001 30.9836C28.6695 30.9836 31.6435 28.0097 31.6435 24.3411C31.6435 20.6725 28.6695 17.6987 25.001 17.6987C21.3325 17.6987 18.3586 20.6726 18.3586 24.3412C18.3624 28.0082 21.334 30.9799 25.0007 30.9836H25.001Z" fill="black"/>
</svg>
