<svg width="45" height="46" viewBox="0 0 45 46" fill="none" xmlns="http://www.w3.org/2000/svg">
<path d="M22.4999 0C29.6652 0 35.4738 5.80856 35.4738 12.9738C35.4738 20.1391 29.6652 25.9477 22.4999 25.9477C15.3347 25.9477 9.5261 20.1391 9.5261 12.9738C9.53406 5.81178 15.3379 0.00804634 22.4991 0H22.4999H22.4999ZM22.4999 22.9444C28.0065 22.9444 32.4706 18.4804 32.4706 12.9737C32.4706 7.46709 28.0066 3.00316 22.4999 3.00316C16.9933 3.00316 12.5293 7.46709 12.5293 12.9738C12.5362 18.4777 16.9961 22.9376 22.4993 22.9444H22.4999ZM42.0448 45.7747L41.3039 41.6663C39.6213 32.6897 31.8454 25.9876 22.5042 25.9876H22.4997H22.4999C13.1677 25.9879 5.39708 32.6739 3.71674 41.517L3.69787 41.6363L2.95909 45.7346L0 45.2021L0.7408 41.0977C2.70366 30.7247 11.6961 22.9853 22.496 22.9853C33.3075 22.9853 42.3075 30.7411 44.2357 40.9925L44.2571 41.1298L45 45.2422L42.0448 45.7747Z" fill="black"/>
</svg>
